<svg width="28" height="29" viewBox="0 0 28 29" fill="none" xmlns="http://www.w3.org/2000/svg">
<path d="M14 0.286133C6.26625 0.286133 0 6.55238 0 14.2861C0 22.0199 6.26625 28.2861 14 28.2861C21.7337 28.2861 28 22.0199 28 14.2861C28 6.55238 21.7337 0.286133 14 0.286133ZM8.6875 20.4043C8.60159 20.5508 8.47861 20.6721 8.33094 20.756C8.18327 20.84 8.0161 20.8835 7.84625 20.8824C7.67314 20.8839 7.50303 20.8371 7.355 20.7474C7.24478 20.6835 7.14826 20.5985 7.07098 20.4972C6.9937 20.396 6.93718 20.2804 6.90466 20.1573C6.87214 20.0341 6.86426 19.9057 6.88148 19.7795C6.8987 19.6533 6.94068 19.5317 7.005 19.4218L7.96062 17.833C8.00892 17.751 8.07782 17.6831 8.16048 17.6359C8.24315 17.5888 8.33671 17.5641 8.43188 17.5643H8.57312C9.26625 17.5643 9.75125 17.9811 9.8925 18.3849L8.6875 20.4043ZM16.7781 17.2793L10.52 17.2861H6.36063C6.22976 17.2867 6.10015 17.2607 5.97965 17.2096C5.85915 17.1586 5.75027 17.0836 5.65963 16.9892C5.56898 16.8948 5.49845 16.783 5.45232 16.6605C5.40618 16.5381 5.38541 16.4075 5.39125 16.2768C5.41125 15.7518 5.86937 15.3543 6.39125 15.3543H9.40625L12.9806 9.26988L11.8231 7.29801C11.5625 6.84863 11.6781 6.25613 12.125 5.97363C12.2352 5.90238 12.3586 5.85415 12.4879 5.83182C12.6172 5.8095 12.7497 5.81355 12.8773 5.84374C13.005 5.87392 13.1253 5.92961 13.2309 6.00746C13.3365 6.08532 13.4253 6.18372 13.4919 6.29676L14.1106 7.35363H14.1175L14.7369 6.29676C14.8036 6.18431 14.8922 6.08643 14.9975 6.00897C15.1028 5.93151 15.2227 5.87605 15.3499 5.84589C15.4771 5.81574 15.609 5.81151 15.7379 5.83346C15.8668 5.8554 15.9899 5.90308 16.1 5.97363C16.5444 6.25613 16.6588 6.84863 16.3962 7.29988L15.2388 9.27176L14.1138 11.1899L11.6706 15.3561V15.363H15.2712C15.7225 15.363 16.2881 15.6055 16.5169 15.9955L16.5369 16.0361C16.7388 16.3793 16.8531 16.6149 16.8531 16.958C16.8498 17.0694 16.825 17.1792 16.78 17.2811L16.7781 17.2793ZM21.6375 17.2861H19.9431V17.293L21.1819 19.3999C21.3151 19.6218 21.3559 19.8871 21.2955 20.1388C21.235 20.3904 21.0782 20.6083 20.8587 20.7455C20.7066 20.8383 20.5319 20.8873 20.3538 20.8874C20.1844 20.8873 20.0179 20.8434 19.8705 20.76C19.723 20.6765 19.5997 20.5563 19.5125 20.4111L17.6819 17.2949L16.5444 15.3574L15.0769 12.8486C14.8643 12.4904 14.7488 12.083 14.7417 11.6665C14.7345 11.25 14.8361 10.8389 15.0362 10.4736C15.3262 9.96176 15.5481 9.82738 15.5481 9.82738L18.8125 15.3486H21.6194C22.1444 15.3486 22.595 15.7524 22.6194 16.2705C22.6244 16.4022 22.6028 16.5336 22.5558 16.6568C22.5088 16.7799 22.4374 16.8923 22.3458 16.9872C22.2543 17.0821 22.1445 17.1574 22.0231 17.2088C21.9017 17.2602 21.7712 17.2865 21.6394 17.2861H21.6375Z" fill="white"/>
</svg>
