<svg width="32" height="33" viewBox="0 0 32 33" fill="none" xmlns="http://www.w3.org/2000/svg">
<path d="M3 4.00416V28.5667C3.00016 28.62 3.01606 28.672 3.04569 28.7163C3.07532 28.7606 3.11737 28.7952 3.16656 28.8156C3.21575 28.8361 3.2699 28.8417 3.32222 28.8315C3.37453 28.8213 3.42268 28.796 3.46062 28.7585L16.25 16.286L3.46062 3.81229C3.42268 3.77488 3.37453 3.7495 3.32222 3.73934C3.2699 3.72918 3.21575 3.73469 3.16656 3.75518C3.11737 3.77567 3.07532 3.81023 3.04569 3.85453C3.01606 3.89882 3.00016 3.95087 3 4.00416Z" fill="white"/>
<path d="M21.6125 11.1611L5.57627 2.32608L5.56627 2.32045C5.29002 2.17045 5.02752 2.5442 5.25377 2.7617L17.8244 14.7817L21.6125 11.1611Z" fill="white"/>
<path d="M5.25499 29.8106C5.02749 30.0281 5.28999 30.4018 5.56749 30.2518L5.57749 30.2462L21.6125 21.4112L17.8244 17.7893L5.25499 29.8106Z" fill="white"/>
<path d="M27.0863 14.7236L22.6081 12.2573L18.3975 16.2861L22.6081 20.3129L27.0863 17.8486C28.3044 17.1754 28.3044 15.3967 27.0863 14.7236Z" fill="white"/>
</svg>
